<?xml version="1.0" encoding="iso-8859-1"?>
<!-- Generator: Adobe Illustrator 16.0.0, SVG Export Plug-In . SVG Version: 6.00 Build 0)  -->
<!DOCTYPE svg PUBLIC "-//W3C//DTD SVG 1.1//EN" "http://www.w3.org/Graphics/SVG/1.1/DTD/svg11.dtd">
<svg version="1.1" id="Capa_1" xmlns="http://www.w3.org/2000/svg" xmlns:xlink="http://www.w3.org/1999/xlink" x="0px" y="0px"
	 width="56.48px" height="56.48px" viewBox="0 0 56.48 56.48" style="enable-background:new 0 0 56.48 56.48;" xml:space="preserve"
	>
<g>
	<path d="M45.049,33.753c0.051,0.19,0.07,0.475,0.07,0.678v1.76c0,0.292-0.021,0.503-0.072,0.708
		c-0.277,1.145-1.218,1.914-2.339,1.914c-1.933,0-2.62-1.744-2.62-3.375c0-2.152,1.045-3.542,2.662-3.542
		C44.039,31.894,44.832,32.821,45.049,33.753z M23.261,37.552c0,1.285,1.044,1.386,1.364,1.386c1.183,0,1.869-0.777,2.096-1.443
		c0.054-0.163,0.084-0.329,0.084-0.465v-1.39C24.454,35.655,23.261,36.298,23.261,37.552z M56.48,11.393v33.695
		c0,0.803-0.65,1.454-1.454,1.454H1.454C0.65,46.542,0,45.89,0,45.087V11.393c0-0.803,0.65-1.454,1.454-1.454h53.572
		C55.83,9.939,56.48,10.59,56.48,11.393z M11.36,33.446c0-3.412,1.919-5.449,5.135-5.449c1.002,0,1.956,0.195,2.686,0.55
		c0.097,0.047,0.213,0.049,0.315,0.006c0.101-0.045,0.177-0.131,0.208-0.237l0.44-1.488c0.051-0.172-0.027-0.356-0.187-0.439
		c-0.302-0.158-1.45-0.671-3.525-0.671c-4.563,0-7.749,3.205-7.749,7.792c0,4.567,2.885,7.519,7.351,7.519
		c1.828,0,3.212-0.367,3.897-0.71c0.158-0.08,0.24-0.26,0.195-0.43l-0.377-1.445c-0.028-0.108-0.104-0.199-0.206-0.246
		c-0.102-0.049-0.221-0.046-0.32,0.003c-0.698,0.338-1.775,0.549-2.811,0.549C13.249,38.749,11.36,36.765,11.36,33.446z
		 M29.499,40.375c-0.108-0.598-0.161-1.37-0.161-2.362V34.22c0-2.916-1.502-4.522-4.229-4.522c-1.307,0-2.595,0.351-3.535,0.961
		c-0.145,0.095-0.207,0.274-0.15,0.437l0.419,1.215c0.038,0.109,0.123,0.195,0.232,0.232c0.107,0.037,0.229,0.022,0.326-0.039
		c0.671-0.436,1.582-0.695,2.436-0.695c1.244,0,1.875,0.593,1.926,1.809c-5.292,0.089-6.093,2.623-6.093,4.145
		c0,1.633,1.194,3.287,3.476,3.287c1.103,0,2.131-0.392,2.879-1.074l0.059,0.511c0.021,0.188,0.182,0.333,0.373,0.333h1.677
		c0.11,0,0.217-0.049,0.287-0.135C29.491,40.597,29.518,40.486,29.499,40.375z M29.842,21.948c0-0.207-0.168-0.375-0.375-0.375
		h-3.713c-0.207,0-0.375,0.168-0.375,0.375v1.171c0,0.207,0.168,0.375,0.375,0.375h1.917v2.732c-0.256,0.08-0.742,0.181-1.566,0.181
		c-2.488,0-3.974-1.561-3.974-4.175c0-2.565,1.593-4.158,4.158-4.158c1.171,0,1.866,0.242,2.34,0.453
		c0.098,0.043,0.211,0.042,0.31-0.002c0.098-0.045,0.172-0.13,0.202-0.234l0.352-1.188c0.053-0.176-0.031-0.364-0.195-0.444
		c-0.557-0.269-1.628-0.556-2.974-0.556c-3.858,0-6.463,2.49-6.481,6.197c0,1.805,0.615,3.434,1.688,4.471
		c1.122,1.07,2.586,1.591,4.475,1.591c1.493,0,2.776-0.349,3.588-0.64c0.149-0.054,0.248-0.195,0.248-0.353V21.948L29.842,21.948z
		 M31.088,17.497c0,0.717,0.555,1.278,1.264,1.278c0.386,0,0.73-0.138,0.973-0.388c0.229-0.238,0.35-0.559,0.337-0.89
		c0-0.75-0.537-1.295-1.276-1.295C31.645,16.202,31.088,16.759,31.088,17.497z M31.647,28.244h1.472
		c0.207,0,0.375-0.168,0.375-0.375v-8.097c0-0.207-0.168-0.375-0.375-0.375h-1.472c-0.207,0-0.375,0.168-0.375,0.375v8.097
		C31.272,28.076,31.44,28.244,31.647,28.244z M37.321,30.136c0-0.172-0.117-0.322-0.284-0.364c-1.148-0.288-2.4,0.233-3.171,1.249
		l-0.022-0.729c-0.008-0.202-0.172-0.362-0.375-0.362h-1.612c-0.104,0-0.203,0.043-0.274,0.119c-0.07,0.075-0.107,0.178-0.1,0.28
		c0.057,0.856,0.082,1.825,0.082,3.14v6.977c0,0.207,0.168,0.375,0.375,0.375h1.822c0.207,0,0.375-0.168,0.375-0.375V35.04
		c0-0.286,0.041-0.563,0.078-0.792c0.23-1.27,1.037-2.059,2.104-2.059c0.213,0,0.377,0.016,0.548,0.054
		c0.11,0.022,0.228-0.003,0.315-0.074s0.14-0.179,0.14-0.292V30.136z M37.545,27.869v-6.601h1.582c0.123,0,0.227-0.063,0.295-0.153
		c0.067,0.091,0.172,0.153,0.293,0.153h0.881v4.041c0,1.138,0.213,1.89,0.66,2.354c0.428,0.49,1.075,0.749,1.871,0.749
		c0.574,0,1.088-0.082,1.448-0.229c0.147-0.062,0.242-0.209,0.231-0.37l-0.066-1.104c-0.007-0.112-0.064-0.215-0.154-0.281
		c-0.092-0.065-0.209-0.088-0.316-0.058c-0.149,0.04-0.403,0.087-0.756,0.087c-0.369,0-0.729-0.092-0.729-1.197V21.27h1.731
		c0.207,0,0.375-0.168,0.375-0.375v-1.121c0-0.207-0.168-0.375-0.375-0.375h-1.731v-1.95c0-0.117-0.054-0.227-0.146-0.297
		c-0.094-0.072-0.215-0.095-0.325-0.065l-1.438,0.385c-0.164,0.044-0.277,0.192-0.277,0.362v1.565h-0.881
		c-0.123,0-0.226,0.063-0.293,0.153c-0.068-0.091-0.172-0.153-0.295-0.153h-1.582v-0.061c0-1.967,0.871-1.967,1.198-1.967
		c0.302,0,0.563,0.05,0.778,0.15c0.104,0.048,0.229,0.046,0.33-0.008c0.104-0.054,0.177-0.152,0.197-0.267l0.201-1.138
		c0.03-0.173-0.063-0.345-0.227-0.412c-0.191-0.079-0.71-0.263-1.396-0.263c-0.871,0-1.664,0.305-2.232,0.856
		c-0.7,0.665-1.055,1.708-1.055,3.099l-0.763,0.01c-0.207,0-0.375,0.168-0.375,0.375v1.121c0,0.207,0.168,0.375,0.375,0.375h0.761
		v6.601c0,0.207,0.168,0.375,0.375,0.375h1.455C37.377,28.244,37.545,28.076,37.545,27.869z M47.795,40.41
		c-0.072-0.794-0.082-1.96-0.082-2.585V25.569c0-0.207-0.168-0.375-0.375-0.375h-1.845c-0.207,0-0.375,0.168-0.375,0.375v5.063
		c-0.683-0.597-1.642-0.935-2.726-0.935c-1.241,0-2.41,0.487-3.291,1.373c-1.062,1.069-1.641,2.649-1.631,4.448
		c0,3.205,1.981,5.529,4.713,5.529c1.259,0,2.398-0.483,3.173-1.31l0.034,0.722c0.01,0.2,0.175,0.357,0.375,0.357h1.656
		c0.104,0,0.205-0.044,0.276-0.122C47.77,40.619,47.805,40.515,47.795,40.41z"/>
</g>
<g>
</g>
<g>
</g>
<g>
</g>
<g>
</g>
<g>
</g>
<g>
</g>
<g>
</g>
<g>
</g>
<g>
</g>
<g>
</g>
<g>
</g>
<g>
</g>
<g>
</g>
<g>
</g>
<g>
</g>
</svg>
