<?xml version="1.0" encoding="iso-8859-1"?>
<!-- Generator: Adobe Illustrator 16.0.0, SVG Export Plug-In . SVG Version: 6.00 Build 0)  -->
<!DOCTYPE svg PUBLIC "-//W3C//DTD SVG 1.1//EN" "http://www.w3.org/Graphics/SVG/1.1/DTD/svg11.dtd">
<svg version="1.1" id="Capa_1" xmlns="http://www.w3.org/2000/svg" xmlns:xlink="http://www.w3.org/1999/xlink" x="0px" y="0px"
	 width="56.48px" height="56.48px" viewBox="0 0 56.48 56.48" style="enable-background:new 0 0 56.48 56.48;" xml:space="preserve"
	>
<g>
	<path d="M17.656,36.204c0,0.813-0.469,1.172-1.283,1.172H14.32v-2.143h2.131C17.054,35.233,17.656,35.501,17.656,36.204z
		 M18.472,40.738h-1.068v1.098h1.004c0.447,0,0.664-0.154,0.664-0.561C19.072,41.058,18.974,40.738,18.472,40.738z M22.205,40.956
		l-0.527,1.622h1.047l-0.512-1.622H22.205z M17.467,32.991c0-0.658-0.469-0.858-1.227-0.858h-1.92v1.752h1.963
		C16.943,33.884,17.467,33.626,17.467,32.991z M23.631,32.554h-0.023l-1.027,3.17h2.043L23.631,32.554z M41.881,40.738h-1.065v1.098
		h1.004c0.446,0,0.664-0.154,0.664-0.561C42.482,41.058,42.385,40.738,41.881,40.738z M56.48,11.393v33.695
		c0,0.803-0.65,1.454-1.454,1.454H1.454C0.65,46.542,0,45.89,0,45.087V11.393c0-0.803,0.65-1.454,1.454-1.454h53.572
		C55.83,9.939,56.48,10.59,56.48,11.393z M21.17,23.07c0.008,0.256,0.014,0.479,0.02,0.662c0.012,0.363,0.018,0.57,0.018,0.57
		s0.039-0.204,0.105-0.562c0.033-0.177,0.074-0.39,0.121-0.636c0.037-0.245,0.164-0.505,0.252-0.792
		c0.094-0.287,0.203-0.593,0.383-0.887c0.164-0.3,0.313-0.622,0.555-0.901c0.109-0.144,0.221-0.291,0.332-0.438
		c0.117-0.144,0.268-0.267,0.396-0.4c0.254-0.276,0.564-0.501,0.871-0.723c0.293-0.233,0.65-0.39,0.959-0.581
		c0.352-0.141,0.662-0.317,1.008-0.419c0.33-0.12,0.654-0.221,0.973-0.293c0.309-0.09,0.619-0.13,0.891-0.188
		c0.174-0.025,0.334-0.047,0.488-0.065c-0.018,0.046-0.037,0.09-0.053,0.137c-0.158,0.434-0.281,0.889-0.367,1.367
		c-0.039,0.243-0.07,0.489-0.096,0.74c-0.02,0.255-0.023,0.519-0.006,0.797c0.26-0.1,0.498-0.213,0.723-0.336
		c0.217-0.127,0.429-0.259,0.634-0.395c0.399-0.277,0.764-0.578,1.092-0.9c0.664-0.642,1.213-1.358,1.674-2.13l0.059-0.097
		c0.283-0.479,0.25-1.105-0.131-1.555c-0.502-0.593-1.055-1.146-1.705-1.625c-0.322-0.242-0.666-0.465-1.043-0.665
		c-0.379-0.197-0.77-0.387-1.234-0.517c0.01,0.483,0.094,0.908,0.191,1.324c0.094,0.404,0.221,0.783,0.369,1.147
		c-0.354,0.104-0.783,0.249-1.268,0.438c-0.313,0.14-0.656,0.267-1.002,0.453c-0.352,0.168-0.707,0.372-1.068,0.6
		c-0.367,0.207-0.709,0.501-1.068,0.755c-0.326,0.311-0.686,0.58-0.977,0.933c-0.301,0.338-0.596,0.676-0.822,1.06
		c-0.115,0.187-0.248,0.359-0.344,0.551c-0.092,0.194-0.18,0.387-0.266,0.575c-0.195,0.365-0.285,0.757-0.387,1.114
		c-0.121,0.353-0.164,0.699-0.197,1.02C21.22,22.528,21.154,22.81,21.17,23.07z M19.814,38.759h1.762l0.559-1.65h2.957l0.514,1.65
		h1.818L24.6,30.748h-1.93L19.814,38.759z M16.051,40.029h-3.338v0.727h1.24v3.377h0.855v-3.377h1.242L16.051,40.029L16.051,40.029z
		 M16.105,38.759c1.641,0,2.076-0.278,2.533-0.726c0.424-0.412,0.691-1.017,0.691-1.651c0-0.791-0.256-1.572-1.238-1.94
		c0.334-0.167,0.982-0.49,0.982-1.64c0-0.826-0.502-2.055-2.467-2.055h-3.895v8.012H16.105z M19.998,44.024
		c-0.182-0.068-0.182-0.218-0.182-0.817c0-0.766-0.184-0.892-0.521-1.04c0.406-0.137,0.635-0.524,0.635-0.978
		c0-0.354-0.199-1.16-1.291-1.16h-2.076v4.104h0.842v-1.604h0.885c0.635,0,0.67,0.218,0.67,0.776c0,0.424,0.033,0.636,0.09,0.828
		h0.949L19.998,44.024L19.998,44.024z M24.158,44.132l-1.445-4.104h-0.99l-1.463,4.104h0.904l0.285-0.846h1.514l0.264,0.846H24.158z
		 M28.015,40.029h-0.801v2.857h-0.01l-1.631-2.857h-0.902v4.104h0.799v-2.926h0.012l1.674,2.926h0.859V40.029z M28.267,26.665
		c0.309-0.148,0.648-0.286,0.989-0.483c0.346-0.178,0.696-0.393,1.049-0.631c0.36-0.218,0.694-0.522,1.047-0.787
		c0.318-0.319,0.668-0.601,0.949-0.961c0.291-0.347,0.573-0.692,0.789-1.083c0.11-0.19,0.235-0.367,0.327-0.562
		c0.085-0.197,0.169-0.392,0.248-0.583c0.185-0.37,0.263-0.765,0.354-1.124c0.109-0.356,0.143-0.705,0.166-1.025
		c0.02-0.319,0.076-0.604,0.053-0.863c-0.016-0.255-0.029-0.479-0.039-0.662c-0.021-0.362-0.035-0.568-0.035-0.568
		s-0.031,0.205-0.09,0.564c-0.027,0.177-0.061,0.392-0.1,0.639c-0.031,0.246-0.15,0.509-0.23,0.799
		c-0.084,0.29-0.184,0.599-0.355,0.898c-0.153,0.304-0.293,0.63-0.526,0.917c-0.104,0.147-0.211,0.297-0.317,0.449
		c-0.113,0.146-0.259,0.273-0.388,0.411c-0.242,0.283-0.547,0.518-0.849,0.748c-0.282,0.242-0.639,0.408-0.94,0.609
		c-0.346,0.151-0.651,0.337-0.994,0.448c-0.325,0.131-0.648,0.241-0.965,0.322c-0.305,0.1-0.613,0.148-0.883,0.214
		c-0.174,0.031-0.334,0.057-0.486,0.08c0.014-0.047,0.033-0.091,0.049-0.138c0.145-0.438,0.254-0.896,0.326-1.378
		c0.031-0.244,0.055-0.491,0.072-0.743c0.014-0.255,0.01-0.52-0.016-0.796c-0.258,0.106-0.492,0.228-0.713,0.357
		c-0.215,0.133-0.42,0.271-0.621,0.413c-0.393,0.289-0.746,0.6-1.064,0.933c-0.645,0.661-1.172,1.394-1.609,2.179l-0.057,0.098
		c-0.27,0.487-0.217,1.113,0.178,1.551c0.52,0.577,1.09,1.114,1.752,1.573c0.328,0.23,0.68,0.445,1.064,0.633
		c0.383,0.188,0.777,0.363,1.248,0.479c-0.025-0.481-0.123-0.903-0.23-1.316c-0.107-0.4-0.244-0.776-0.404-1.136
		C27.365,27.025,27.789,26.867,28.267,26.665z M28.42,38.759h1.563v-5.713h0.022l3.271,5.713h1.672v-8.012h-1.562v5.579h-0.022
		l-3.181-5.579H28.42V38.759z M32.004,42.899c0-0.737-0.514-0.968-1.076-1.104l-0.998-0.246c-0.172-0.039-0.436-0.107-0.436-0.429
		c0-0.371,0.391-0.491,0.715-0.491c0.75,0,0.816,0.436,0.842,0.617h0.82c-0.006-0.503-0.342-1.326-1.6-1.326
		c-1.332,0-1.576,0.807-1.576,1.264c0,0.904,0.639,1.053,1.303,1.205l0.439,0.104c0.436,0.103,0.744,0.188,0.744,0.509
		c0,0.434-0.453,0.531-0.857,0.531c-0.75,0-0.865-0.434-0.871-0.663h-0.82c0,0.509,0.256,1.372,1.753,1.372
		C30.746,44.242,32.004,44.132,32.004,42.899z M35.58,40.029h-2.92v4.104h0.857v-1.726h1.805v-0.726h-1.805v-0.926h2.062V40.029z
		 M39.271,43.407h-2.275v-1.063h2v-0.726h-2v-0.862h2.178v-0.728h-3.018v4.104h3.115V43.407z M43.406,44.024
		c-0.182-0.068-0.182-0.218-0.182-0.817c0-0.766-0.185-0.892-0.521-1.04c0.404-0.137,0.636-0.524,0.636-0.978
		c0-0.354-0.201-1.16-1.293-1.16h-2.074v4.104h0.842v-1.604h0.885c0.633,0,0.67,0.218,0.67,0.776c0,0.424,0.033,0.636,0.09,0.828
		h0.947V44.024z M43.768,38.759l-3.459-4.73l3.27-3.28h-2.164l-3.059,3.259v-3.259h-1.674v8.013h1.674v-2.713l0.781-0.803
		l2.477,3.516h2.154V38.759z"/>
</g>
<g>
</g>
<g>
</g>
<g>
</g>
<g>
</g>
<g>
</g>
<g>
</g>
<g>
</g>
<g>
</g>
<g>
</g>
<g>
</g>
<g>
</g>
<g>
</g>
<g>
</g>
<g>
</g>
<g>
</g>
</svg>
