<?xml version="1.0" encoding="iso-8859-1"?>
<!-- Generator: Adobe Illustrator 16.0.0, SVG Export Plug-In . SVG Version: 6.00 Build 0)  -->
<!DOCTYPE svg PUBLIC "-//W3C//DTD SVG 1.1//EN" "http://www.w3.org/Graphics/SVG/1.1/DTD/svg11.dtd">
<svg version="1.1" id="Capa_1" xmlns="http://www.w3.org/2000/svg" xmlns:xlink="http://www.w3.org/1999/xlink" x="0px" y="0px"
	 width="56.48px" height="56.48px" viewBox="0 0 56.48 56.48" style="enable-background:new 0 0 56.48 56.48;" xml:space="preserve"
	>
<g>
	<path d="M55.026,9.939H1.454C0.65,9.939,0,10.59,0,11.393v33.695c0,0.803,0.65,1.454,1.454,1.454h53.572
		c0.804,0,1.454-0.651,1.454-1.454V11.393C56.48,10.59,55.83,9.939,55.026,9.939z M49.934,35.993
		c-0.037,0.07-0.092,0.125-0.161,0.164c-0.069,0.037-0.142,0.058-0.218,0.058s-0.149-0.021-0.219-0.058
		c-0.07-0.039-0.125-0.094-0.164-0.164c-0.037-0.069-0.058-0.144-0.058-0.219c0-0.076,0.021-0.148,0.06-0.22
		c0.039-0.069,0.094-0.125,0.164-0.162c0.07-0.039,0.143-0.057,0.217-0.057c0.072,0,0.146,0.018,0.215,0.057
		c0.07,0.037,0.125,0.093,0.164,0.162c0.039,0.07,0.06,0.144,0.06,0.22C49.993,35.849,49.973,35.923,49.934,35.993z M50.916,28.241
		c0.002,7.496-6.072,13.574-13.568,13.576c-3.506,0-6.703-1.328-9.111-3.511c-2.407,2.179-5.599,3.507-9.099,3.507
		c-7.492,0-13.572-6.08-13.572-13.572c0-7.463,6.033-13.525,13.485-13.572c0.029,0,0.058,0,0.087,0c3.5,0,6.691,1.328,9.1,3.506
		c2.407-2.182,5.601-3.51,9.104-3.51c7.496-0.002,13.573,6.072,13.575,13.568C50.916,28.235,50.916,28.239,50.916,28.241z
		 M49.633,35.831c-0.012-0.008-0.023-0.018-0.041-0.022c0.041-0.004,0.073-0.019,0.099-0.043c0.024-0.027,0.036-0.058,0.036-0.092
		c0-0.023-0.008-0.048-0.021-0.068c-0.014-0.021-0.033-0.037-0.061-0.045c-0.023-0.01-0.063-0.014-0.119-0.014h-0.162v0.473h0.076
		v-0.201h0.045c0.027,0,0.048,0.006,0.062,0.016c0.02,0.016,0.047,0.053,0.078,0.111l0.042,0.074h0.093l-0.058-0.094
		C49.674,35.882,49.651,35.849,49.633,35.831z M49.531,35.753h-0.093v-0.146h0.087c0.037,0,0.062,0.004,0.076,0.01
		c0.013,0.006,0.023,0.015,0.031,0.022c0.008,0.013,0.012,0.023,0.012,0.039c0,0.021-0.008,0.039-0.023,0.052
		C49.605,35.745,49.575,35.753,49.531,35.753z M19.004,25.22l-1.221,6.305h-1.535l0.906-4.846l-2.107,4.846h-1.405l-0.259-4.817
		l-0.924,4.817h-1.405l1.201-6.305h2.404l0.129,3.904l1.7-3.904H19.004z M32.004,23.909H24.5c0.073-0.141,0.336-0.707,0.731-1.453
		h6.187C31.639,22.925,31.836,23.411,32.004,23.909z M28.27,38.276c-0.012,0.012-0.023,0.021-0.035,0.03
		c-0.503-0.455-0.958-0.959-1.388-1.483h2.803c-0.424,0.519-0.885,1.004-1.378,1.453H28.27z M30.637,21.03h-4.601
		c0.294-0.488,0.62-0.986,0.967-1.455h2.579C29.965,20.036,30.317,20.52,30.637,21.03z M45.09,30.931h0.463v0.097h-0.168v0.507
		h-0.127v-0.507H45.09V30.931z M46.105,30.931h0.203v0.604H46.18v-0.497l-0.166,0.497h-0.11l-0.167-0.497v0.002v0.495h-0.109v-0.604
		h0.202l0.13,0.457L46.105,30.931z M43.76,28.901l1.053,2.612H43.26l-0.518-1.596l-1.036,1.596h-1.849l2.053-2.682l-0.999-2.463
		h1.591L43,27.913l0.963-1.544h1.719L43.76,28.901z M21.813,26.25c-1.849,0-3.05,1.231-3.05,3.047c0,1.303,0.702,2.364,2.458,2.364
		c1.59,0,2.773-0.755,3.014-2.462c0.037-0.298,0.037-0.316,0.037-0.637C24.272,27.262,23.422,26.25,21.813,26.25z M22.534,29.146
		c-0.129,0.798-0.851,1.255-1.183,1.255c-0.555,0.01-0.888-0.457-0.888-1.152c0-0.825,0.48-1.757,1.275-1.757
		c0.629,0,0.851,0.505,0.851,1.04C22.59,28.755,22.571,28.959,22.534,29.146z M39.857,30.234c-0.573,0.189-0.702,0.21-1.258,0.21
		c-0.905,0-1.35-0.304-1.35-0.899c0-0.045,0-0.08,0-0.16h3.088c0.129-0.52,0.186-0.888,0.186-1.266c0-1.137-0.812-1.864-2.09-1.864
		c-1.553,0-2.699,1.295-2.699,3.055c0,1.508,0.906,2.297,2.625,2.299c0.555,0,0.759-0.008,1.258-0.192v0.001L39.857,30.234z
		 M38.397,27.426c0.462,0,0.739,0.245,0.739,0.662c0,0.068,0,0.154-0.02,0.26l-1.701-0.002
		C37.565,27.755,37.917,27.426,38.397,27.426z M25.862,31.519h-1.553l0.702-3.809c0.074-0.444,0.147-0.882,0.186-1.346h1.441
		l-0.111,0.84h0.019c0.444-0.573,0.925-0.959,1.738-0.959c0.906,0,1.405,0.772,1.405,1.78c0,0.347-0.02,0.546-0.111,1.089
		l-0.425,2.402h-1.608l0.426-2.414c0.055-0.256,0.11-0.512,0.11-0.778c0-0.31-0.167-0.614-0.61-0.595
		c-0.665,0-1.054,0.65-1.165,1.414L25.862,31.519z M34.422,25.174l-0.352,1.813c-0.426-0.49-0.887-0.708-1.479-0.708
		c-1.388,0-2.533,1.447-2.533,3.165c0,1.29,0.738,2.144,1.867,2.144c0.572,0,1.018-0.177,1.441-0.572l-0.074,0.504h1.479
		l1.185-6.345H34.422z M32.48,30.304c-0.535,0-0.813-0.34-0.813-1.018c0-1.016,0.499-1.735,1.22-1.735
		c0.537,0,0.814,0.356,0.814,1.013C33.701,29.587,33.202,30.304,32.48,30.304z M25.036,33.97h6.407
		c-0.234,0.502-0.498,0.986-0.79,1.453h-4.815C25.546,34.956,25.271,34.474,25.036,33.97z"/>
</g>
<g>
</g>
<g>
</g>
<g>
</g>
<g>
</g>
<g>
</g>
<g>
</g>
<g>
</g>
<g>
</g>
<g>
</g>
<g>
</g>
<g>
</g>
<g>
</g>
<g>
</g>
<g>
</g>
<g>
</g>
</svg>
