<?xml version="1.0" encoding="iso-8859-1"?>
<!-- Generator: Adobe Illustrator 16.0.0, SVG Export Plug-In . SVG Version: 6.00 Build 0)  -->
<!DOCTYPE svg PUBLIC "-//W3C//DTD SVG 1.1//EN" "http://www.w3.org/Graphics/SVG/1.1/DTD/svg11.dtd">
<svg version="1.1" id="Capa_1" xmlns="http://www.w3.org/2000/svg" xmlns:xlink="http://www.w3.org/1999/xlink" x="0px" y="0px"
	 width="56.48px" height="56.48px" viewBox="0 0 56.48 56.48" style="enable-background:new 0 0 56.48 56.48;" xml:space="preserve"
	>
<g>
	<path d="M34.857,35.15c0,0.453-0.184,0.756-0.516,0.756c-0.326,0-0.511-0.311-0.511-0.762c0-0.459,0.179-0.75,0.511-0.75
		S34.857,34.698,34.857,35.15z M22.435,34.245c-0.24,0-0.412,0.212-0.441,0.642h0.883C22.847,34.462,22.699,34.245,22.435,34.245z
		 M28.357,34.457c-0.184,0-0.334,0.108-0.477,0.27v1.111c0.115,0.034,0.184,0.051,0.314,0.051c0.338,0,0.58-0.205,0.58-0.762
		C28.775,34.657,28.603,34.457,28.357,34.457z M31.324,34.394c-0.332,0-0.51,0.291-0.51,0.75c0,0.453,0.182,0.762,0.51,0.762
		c0.332,0,0.516-0.305,0.516-0.756C31.84,34.698,31.656,34.394,31.324,34.394z M40.092,34.245c-0.24,0-0.412,0.212-0.44,0.642h0.883
		C40.504,34.462,40.355,34.245,40.092,34.245z M16.386,34.394c-0.332,0-0.51,0.291-0.51,0.75c0,0.453,0.184,0.762,0.51,0.762
		c0.334,0,0.516-0.305,0.516-0.756C16.902,34.698,16.72,34.394,16.386,34.394z M56.48,11.393v33.695c0,0.803-0.65,1.454-1.454,1.454
		H1.454C0.65,46.542,0,45.89,0,45.087V11.393c0-0.803,0.65-1.454,1.454-1.454h53.572C55.83,9.939,56.48,10.59,56.48,11.393z
		 M43.018,30.946h2.969V19.557l-2.969,0.531V30.946z M34.482,20.355c0,0.808,0.654,1.462,1.461,1.462
		c0.809,0,1.463-0.655,1.463-1.462c0-0.808-0.654-1.463-1.463-1.463C35.137,18.891,34.482,19.547,34.482,20.355z M34.461,30.946
		h2.967v-8.33h-2.967V30.946z M28.652,30.946h2.992v-3.822c0-1.464,0.191-2.093,1.93-2.152v-2.435
		c-0.293-0.062-0.787-0.043-0.787-0.043c-2.742,0.088-4.135,1.319-4.135,3.766V30.946z M19.982,30.946h3.063v-3.333
		c0.887,1.33,1.326,3.333,1.326,3.333h3.668c-0.363-1.508-1.951-4.29-1.951-4.29c1.426-1.806,2.051-3.73,2.15-4.05h-3.502
		c-0.066,0.166-0.541,1.509-1.691,2.9v-5.949l-3.063,0.605V30.946z M14.601,34.554c0-0.545-0.275-0.871-0.797-0.871
		c-0.35,0-0.625,0.188-0.877,0.44c-0.102-0.252-0.314-0.44-0.697-0.44c-0.361,0-0.619,0.183-0.871,0.44l-0.064-0.383h-0.762v2.808
		h0.865v-1.852c0.154-0.148,0.299-0.246,0.459-0.246c0.201,0,0.275,0.137,0.275,0.337v1.759h0.865v-1.851
		c0.154-0.149,0.303-0.246,0.457-0.246c0.201,0,0.275,0.138,0.275,0.337v1.76H14.6L14.601,34.554L14.601,34.554z M17.74,35.144
		c0-0.899-0.574-1.461-1.354-1.461c-0.773,0-1.346,0.567-1.346,1.467c0,0.898,0.568,1.455,1.34,1.455
		C17.16,36.605,17.74,36.043,17.74,35.144z M19.236,27.397c0-2.072-1.639-3.419-4.391-3.604c-0.375-0.024-1.242-0.081-1.242-0.863
		c0-0.943,1.25-0.943,1.719-0.943c0.824,0,1.893,0.243,2.654,0.472c0,0,0.426,0.15,0.789,0.304l0.033,0.009v-0.034V20.19
		l-0.047-0.014c-0.9-0.315-1.947-0.618-3.887-0.618c-3.346,0-4.531,1.949-4.531,3.618c0,0.962,0.412,3.228,4.244,3.489
		c0.324,0.02,1.188,0.07,1.188,0.877c0,0.667-0.707,1.062-1.893,1.062c-1.301,0-2.564-0.332-3.33-0.646v2.661
		c1.148,0.301,2.441,0.451,3.957,0.451C17.771,31.069,19.236,29.224,19.236,27.397z M20.695,34.554c0-0.545-0.275-0.871-0.797-0.871
		c-0.355,0-0.625,0.195-0.877,0.44l-0.062-0.383h-0.762v2.808h0.865v-1.846c0.154-0.154,0.309-0.251,0.475-0.251
		c0.207,0,0.287,0.138,0.287,0.337v1.76h0.871V34.554z M22,35.362h1.686c0.01-0.045,0.016-0.138,0.016-0.224
		c0-0.813-0.383-1.455-1.242-1.455c-0.762,0-1.324,0.556-1.324,1.472c0,1.002,0.602,1.448,1.443,1.448
		c0.441,0,0.814-0.12,1.117-0.314l-0.086-0.607c-0.309,0.178-0.613,0.293-0.922,0.293C22.308,35.974,22.047,35.802,22,35.362z
		 M26.674,33.741h-0.838L25.32,35.47L24.777,33.7l-0.928,0.108l1.02,2.744l-0.035,0.086c-0.092,0.194-0.264,0.27-0.457,0.27
		c-0.168,0-0.254-0.018-0.346-0.046l0.109,0.692c0.08,0.018,0.154,0.035,0.326,0.035c0.613,0,0.957-0.252,1.209-0.986L26.674,33.741
		z M29.641,35.07c0-0.951-0.437-1.387-1.01-1.387c-0.332,0-0.572,0.184-0.75,0.367v-1.639l-0.865,0.137v3.834
		c0.326,0.125,0.752,0.199,1.203,0.199C29.084,36.582,29.641,36.113,29.641,35.07z M32.676,35.144c0-0.899-0.574-1.461-1.352-1.461
		c-0.773,0-1.348,0.567-1.348,1.467c0,0.898,0.568,1.455,1.342,1.455C32.098,36.605,32.676,36.043,32.676,35.144z M35.693,35.144
		c0-0.899-0.572-1.461-1.352-1.461c-0.773,0-1.347,0.567-1.347,1.467c0,0.898,0.565,1.455,1.341,1.455
		C35.115,36.605,35.693,36.043,35.693,35.144z M38.73,36.462l-0.918-1.445l0.883-1.276h-0.93l-0.75,1.151v-2.48l-0.863,0.137v4
		h0.863v-1.307l0.813,1.346L38.73,36.462z M39.656,35.362h1.686c0.01-0.045,0.017-0.138,0.017-0.224
		c0-0.813-0.384-1.455-1.242-1.455c-0.763,0-1.324,0.556-1.324,1.472c0,1.002,0.603,1.448,1.445,1.448
		c0.438,0,0.813-0.12,1.114-0.314l-0.086-0.607c-0.309,0.178-0.61,0.293-0.922,0.293C39.967,35.974,39.703,35.802,39.656,35.362z
		 M41.652,19.557l-2.967,0.531v10.858h2.967V19.557z M43.633,34.566l-0.145-0.883c-0.412,0.029-0.646,0.293-0.818,0.613
		l-0.092-0.556H41.82v2.808h0.865V34.99C42.898,34.761,43.213,34.595,43.633,34.566z M46.146,35.683c0-0.521-0.264-0.711-1.01-0.911
		c-0.396-0.109-0.476-0.171-0.476-0.286c0-0.109,0.093-0.184,0.297-0.184c0.271,0,0.619,0.097,0.925,0.263l0.106-0.658
		c-0.291-0.131-0.658-0.207-1.037-0.207c-0.688,0-1.075,0.351-1.075,0.871c0,0.526,0.299,0.716,1.002,0.899
		c0.396,0.098,0.477,0.16,0.477,0.303c0,0.132-0.115,0.212-0.355,0.212c-0.32,0-0.729-0.126-1.061-0.333l-0.104,0.658
		c0.293,0.156,0.711,0.281,1.157,0.281C45.738,36.593,46.146,36.273,46.146,35.683z"/>
</g>
<g>
</g>
<g>
</g>
<g>
</g>
<g>
</g>
<g>
</g>
<g>
</g>
<g>
</g>
<g>
</g>
<g>
</g>
<g>
</g>
<g>
</g>
<g>
</g>
<g>
</g>
<g>
</g>
<g>
</g>
</svg>
