<?xml version="1.0" encoding="iso-8859-1"?>
<!-- Generator: Adobe Illustrator 16.0.0, SVG Export Plug-In . SVG Version: 6.00 Build 0)  -->
<!DOCTYPE svg PUBLIC "-//W3C//DTD SVG 1.1//EN" "http://www.w3.org/Graphics/SVG/1.1/DTD/svg11.dtd">
<svg version="1.1" id="Capa_1" xmlns="http://www.w3.org/2000/svg" xmlns:xlink="http://www.w3.org/1999/xlink" x="0px" y="0px"
	 width="56.48px" height="56.48px" viewBox="0 0 56.48 56.48" style="enable-background:new 0 0 56.48 56.48;" xml:space="preserve"
	>
<g>
	<path d="M41.227,30.954c0,0.894-0.34,1.847-1.399,1.847c-0.996,0-1.325-1.02-1.325-1.847c0-0.869,0.289-1.901,1.348-1.901
		C40.897,29.052,41.227,30.072,41.227,30.954z M14.387,24.71v-0.758h-0.764v0.758H14.387z M13.624,25.909v0.765h0.77v-0.765H13.624z
		 M15.69,29.052c-1.03,0-1.447,0.785-1.609,1.68h2.274c0.22,0,0.672,0.068,0.672-0.275C17.027,29.601,16.558,29.052,15.69,29.052z
		 M17.091,21.958h0.758v-0.764h-0.758V21.958z M16.349,23.487v-0.77h-0.77v0.77H16.349z M17.091,22.717v-0.758H16.35v0.758H17.091z
		 M52.364,29.462c0-0.156-0.127-0.193-0.267-0.193h-0.254v0.394h0.185C52.196,29.662,52.364,29.658,52.364,29.462z M52.885,29.72
		c0,0.47-0.353,0.843-0.826,0.843c-0.475,0-0.834-0.373-0.834-0.843c0-0.473,0.358-0.845,0.834-0.845
		C52.533,28.875,52.885,29.247,52.885,29.72z M52.561,30.286l-0.342-0.505c0.156-0.025,0.289-0.117,0.289-0.318
		c0-0.203-0.115-0.312-0.369-0.312h-0.44v1.137h0.146v-0.506h0.231l0.317,0.505H52.561z M56.48,11.393v33.695
		c0,0.803-0.65,1.454-1.454,1.454H1.454C0.65,46.542,0,45.89,0,45.087V11.393c0-0.803,0.65-1.454,1.454-1.454h53.572
		C55.83,9.939,56.48,10.59,56.48,11.393z M34.692,26.283c0,0.427,0.358,0.729,0.771,0.729c0.389,0,0.707-0.33,0.707-0.729
		c0-0.415-0.318-0.745-0.729-0.745C35.022,25.539,34.692,25.869,34.692,26.283z M24.627,26.283c0,0.427,0.359,0.729,0.77,0.729
		c0.389,0,0.707-0.33,0.707-0.729c0-0.415-0.318-0.745-0.735-0.745C24.957,25.539,24.627,25.869,24.627,26.283z M12.373,29.188
		h0.614v-0.77h0.637v-0.886h0.77v-0.858h0.752v-0.769h0.608v-0.931h0.677v-0.639h0.66v-1.619h0.758v-0.758h0.852v-0.764h-0.852
		v-0.799h0.724v-0.812h0.811v0.816H20.2v-0.816h-0.816v-0.804H20.2v-0.816h-0.816v0.816h-0.811v0.804h-1.481v0.812h-0.741v1.562
		h-0.77V21.23h-0.764v0.729h0.764v0.758h-1.273v0.556h-0.683v0.68h-0.811v1.191h-0.765v0.762H11.54v0.762h-0.556
		c-0.631,0.934-2.205,3.846-2.68,5.029c-1.714-2.385-3.045-3.332-4.093-3.673c-0.562-0.17-1.25,0.446-0.307,1.414
		c2.153,2.374,2.836,4.338,3.49,5.905c0.348,0.824,1.904,0.955,2.217,0.112c0.66-1.78,1.627-3.778,2.761-5.418L12.373,29.188
		L12.373,29.188z M18.306,30.981c0-1.488-1.279-2.246-2.628-2.246c-1.795,0-3.103,1.556-3.103,3.278
		c0,1.764,1.406,2.963,3.114,2.963c1.036,0,1.806-0.373,2.454-1.17l-0.29-0.291c-0.411,0.55-1.036,1.02-1.736,1.02
		c-1.476,0-2.165-1.459-2.165-2.768l0.059-0.663h3.953C18.103,31.103,18.306,31.16,18.306,30.981z M23.567,29.451
		c0-0.508-0.55-0.716-0.978-0.716c-0.949,0-1.639,0.552-1.997,1.392h-0.029c0.018-0.496-0.04-0.992-0.162-1.392
		c-0.607,0.137-1.215,0.384-1.863,0.427v0.275c0.439,0,0.787-0.057,0.908,0.439c0.099,0.318,0.081,1.297,0.081,1.67v1.691
		c0,0.91,0.075,1.24-0.961,1.311v0.276c0.539-0.015,1.06-0.043,1.598-0.056c0.521,0.013,1.06,0.041,1.586,0.056v-0.276
		c-1.157-0.056-1.048-0.386-1.048-1.392v-1.364c0-0.633,0-1.308,0.318-1.874c0.203-0.345,0.66-0.688,1.071-0.688
		c0.538,0,0.417,0.717,0.995,0.717C23.347,29.949,23.567,29.714,23.567,29.451z M27.081,34.548
		c-1.088-0.067-0.938-0.482-0.967-1.391v-4.422l-2.176,0.427v0.275c0.277-0.015,0.856-0.042,0.949,0.302
		c0.058,0.209,0.058,1.27,0.058,1.529v1.97c-0.018,0.91,0.069,1.241-0.949,1.31v0.277c0.532-0.016,1.071-0.043,1.609-0.055
		c0.498,0.012,1.007,0.041,1.476,0.055V34.548z M33.899,32.302c0-1.803-1.597-2.521-3.032-3.111
		c-0.852-0.359-1.829-0.731-1.829-1.821c0-0.894,0.729-1.459,1.608-1.459c1.338,0,1.984,1.033,2.299,2.177h0.316l-0.062-2.383
		h-0.156l-0.318,0.536c-0.619-0.44-1.319-0.702-2.078-0.702c-1.499,0-2.726,0.909-2.726,2.479c0,1.57,1.332,2.233,2.587,2.715
		c1.006,0.398,2.096,0.896,2.096,2.148c0,1.117-0.897,1.723-1.969,1.723c-1.586,0-2.333-1.172-2.604-2.562h-0.318v2.688h0.15
		l0.33-0.58c0.747,0.551,1.478,0.826,2.414,0.826C32.217,34.976,33.899,34.108,33.899,32.302z M35.672,34.769
		c0.498,0.013,1.006,0.041,1.477,0.056v-0.276c-1.09-0.068-0.938-0.483-0.967-1.392v-4.422l-2.178,0.427v0.275
		c0.278-0.016,0.856-0.043,0.949,0.302c0.059,0.209,0.059,1.269,0.059,1.53v1.969c-0.012,0.91,0.069,1.24-0.949,1.311v0.276
		C34.6,34.81,35.133,34.783,35.672,34.769z M43.821,29.367c0-0.424-0.458-0.592-0.812-0.592c-0.504,0-0.967,0.29-1.336,0.58
		c-0.471-0.428-1.117-0.62-1.754-0.62c-1.35,0-2.589,0.784-2.589,2.246c0,0.881,0.673,1.639,1.472,1.899v0.028
		c-0.592,0.083-1.211,0.522-1.211,1.185c0,1.239,1.25,1.213,2.166,1.239c0.948,0.058,2.465-0.012,2.465,1.337
		c0,1.117-1.047,1.53-2.015,1.53c-0.967,0-2.188-0.235-2.188-1.435c0-0.428,0.261-0.895,0.713-0.977
		c-0.162-0.152-0.342-0.25-0.573-0.25c-0.597,0-1.019,0.579-1.019,1.145c0,1.434,1.748,1.832,2.888,1.832
		c1.505,0,3.126-0.564,3.126-2.312c0-1.85-1.48-1.904-2.889-2.013l-0.926-0.042c-0.302-0.027-1.061,0.027-1.061-0.455
		c0-0.564,1.061-0.564,1.477-0.578c1.418-0.068,2.646-0.538,2.646-2.163c0-0.497-0.168-0.979-0.497-1.353
		c0.15-0.123,0.37-0.26,0.566-0.26c0.422,0,0.47,0.48,0.892,0.48C43.631,29.823,43.821,29.617,43.821,29.367z M51.391,34.548
		c-1.075-0.067-0.965-0.482-0.965-1.391v-2.521c0-1.31-0.742-1.9-2.057-1.9c-0.972,0-1.719,0.398-2.199,1.253h-0.029l-0.178-1.253
		c-0.679,0.123-1.188,0.344-1.898,0.427v0.275c0.439,0,0.81-0.056,0.92,0.44c0.068,0.317,0.068,1.282,0.068,1.668v1.692
		c0,0.91,0.069,1.241-0.967,1.31v0.277c0.538-0.016,1.065-0.043,1.604-0.055c0.491,0.012,1.001,0.041,1.499,0.055v-0.277
		c-1.088-0.067-0.967-0.482-0.967-1.391v-2.135c0-1.006,0.688-1.848,1.766-1.848c1.309,0,1.268,1.351,1.268,2.301v1.763
		c0,0.91,0.069,1.241-0.967,1.31v0.277c0.539-0.016,1.061-0.043,1.598-0.055c0.498,0.012,1.008,0.041,1.506,0.055v-0.277H51.391z
		 M53.042,29.72c0-0.555-0.429-0.984-0.983-0.984s-0.984,0.431-0.984,0.984c0,0.551,0.43,0.983,0.984,0.983
		S53.042,30.271,53.042,29.72z"/>
</g>
<g>
</g>
<g>
</g>
<g>
</g>
<g>
</g>
<g>
</g>
<g>
</g>
<g>
</g>
<g>
</g>
<g>
</g>
<g>
</g>
<g>
</g>
<g>
</g>
<g>
</g>
<g>
</g>
<g>
</g>
</svg>
